<?xml version="1.0" standalone="no"?>
<!DOCTYPE svg PUBLIC "-//W3C//DTD SVG 20010904//EN"
 "http://www.w3.org/TR/2001/REC-SVG-20010904/DTD/svg10.dtd">
<svg version="1.0" xmlns="http://www.w3.org/2000/svg"
 width="1200.000000pt" height="1200.000000pt" viewBox="0 0 1200.000000 1200.000000"
 preserveAspectRatio="xMidYMid meet">
<metadata>
Created by potrace 1.11, written by Peter Selinger 2001-2013
</metadata>
<g transform="translate(0.000000,1200.000000) scale(0.100000,-0.100000)"
fill="#000000" stroke="none">
<path d="M1898 11185 c-1 -1 -35 -6 -73 -9 -39 -4 -82 -9 -95 -11 -14 -3 -41
-8 -60 -11 -19 -3 -38 -8 -41 -10 -3 -2 -21 -6 -40 -9 -51 -9 -204 -63 -285
-101 -39 -19 -76 -34 -82 -34 -7 0 -12 -4 -12 -9 0 -5 -13 -14 -28 -20 -77
-32 -251 -162 -358 -268 -268 -263 -435 -592 -496 -974 -11 -69 -13 -744 -13
-3714 0 -1996 4 -3661 8 -3700 24 -207 119 -502 202 -627 14 -21 25 -40 25
-43 0 -3 23 -40 51 -82 181 -268 454 -495 734 -609 33 -14 69 -29 80 -34 29
-13 102 -36 171 -54 88 -22 125 -29 259 -45 77 -9 8318 -8 8350 1 11 3 40 9
65 13 25 3 57 9 72 11 104 16 357 110 478 177 173 96 363 253 475 392 22 28
46 57 54 65 32 34 131 194 174 281 76 158 126 318 163 534 4 22 8 1674 9 3670
2 3822 4 3705 -40 3904 -118 529 -503 982 -1015 1194 -90 38 -282 91 -365 103
-27 3 -59 9 -70 12 -21 6 -8290 13 -8297 7z"/>
</g>
</svg>
